# AST/ASF file generated using VICON BodyLanguage
# -----------------------------------------------
:version 1.10
:name VICON
:units
  mass 1.0
  length 0.45
  angle deg
:documentation
   .ast/.asf automatically generated from VICON data using
   VICON BodyBuilder and BodyLanguage model FoxedUp or BRILLIANT.MOD
:root
   order TX TY TZ RX RY RZ
   axis XYZ
   position 0 0 0  
   orientation 0 0 0 
:bonedata
  begin
     id 1 
     name lhipjoint
     direction 0.635376 -0.686425 0.353719 
     length 2.47244 
     axis 0 0 0  XYZ
  end
  begin
     id 2 
     name lfemur
     direction 0.34202 -0.939693 0  
     length 7.25268  
     axis 0 0 20  XYZ
    dof rx ry rz
    limits (-160.0 20.0)
           (-70.0 70.0)
           (-60.0 70.0)
  end
  begin
     id 3 
     name ltibia
     direction 0.34202 -0.939693 0   
     length 7.6767   
     axis 0 0 20   XYZ
    dof rx
    limits (-10.0 170.0)
  end
  begin
     id 4 
     name lfoot
     direction 0.0803374 -0.220725 0.972022   
     length 2.22945   
     axis -90 7.62852e-016 20   XYZ
    dof rx rz
    limits (-45.0 90.0)
           (-70.0 20.0)
  end
  begin
     id 5 
     name ltoes
     direction 1.53579e-011 -4.21994e-011 1   
     length 1.11848   
     axis -90 7.62852e-016 20   XYZ
    dof rx
    limits (-90.0 20.0)
  end
  begin
     id 6 
     name rhipjoint
     direction -0.664428 -0.664335 0.342336   
     length 2.55466  
     axis 0 0 0  XYZ 
  end
  begin
     id 7 
     name rfemur
     direction -0.34202 -0.939693 0   
     length 6.83172   
     axis 0 0 -20   XYZ
    dof rx ry rz
    limits (-160.0 20.0)
           (-70.0 70.0)
           (-70.0 60.0)
  end
  begin
     id 8 
     name rtibia
     direction -0.34202 -0.939693 0   
     length 7.62692   
     axis 0 0 -20   XYZ
    dof rx
    limits (-10.0 170.0)
 end
 begin
     id 9 
     name rfoot
     direction -0.0949276 -0.260811 0.960711   
     length 2.19684  
     axis -90 -7.62852e-016 -20   XYZ
    dof rx rz
    limits (-45.0 90.0)
           (-20.0 70.0)
  end
  begin
     id 10 
     name rtoes
     direction -1.53543e-011 -4.2183e-011 1   
     length 1.09848   
     axis -90 -7.62852e-016 -20   XYZ
    dof rx
    limits (-90.0 20.0)
  end
  begin
     id 11 
     name lowerback
     direction 0.0118782 0.999815 -0.0151555   
     length 2.15772   
     axis 0 0 0   XYZ
    dof rx ry rz
    limits (-20.0 45.0)
           (-30.0 30.0)
           (-30.0 30.0)
  end
  begin
     id 12 
     name upperback
     direction 0.00130825 0.999065 0.0432113   
     length 2.14863   
     axis 0 0 0   XYZ
    dof rx ry rz
    limits (-20.0 45.0)
           (-30.0 30.0)
           (-30.0 30.0)
  end
  begin
     id 13 
     name thorax
     direction -0.00347005 0.998773 0.0494011   
     length 2.14936   
     axis 0 0 0   XYZ
    dof rx ry rz
    limits (-20.0 45.0)
           (-30.0 30.0)
           (-30.0 30.0)
  end
  begin
     id 14 
     name lowerneck
     direction -0.0262159 0.99424 0.103921   
     length 1.69373   
     axis 0 0 0   XYZ
    dof rx ry rz
    limits (-20.0 45.0)
           (-30.0 30.0)
           (-30.0 30.0)
  end
  begin
     id 15 
     name upperneck
     direction 0.0353511 0.977394 -0.20845   
     length 1.70857   
     axis 0 0 0   XYZ
    dof rx ry rz
    limits (-20.0 45.0)
           (-30.0 30.0)
           (-30.0 30.0)
  end
  begin
     id 16
     name head
     direction 0.0139214 0.996594 -0.0812836  
     length 1.72777  
     axis 0 0 0   XYZ
    dof rx ry rz
    limits (-20.0 45.0)
           (-30.0 30.0)
           (-30.0 30.0)
  end
  begin
     id 17 
     name lclavicle
     direction 0.841247 0.537205 -0.0609508  
     length 3.55371  
     axis 0 0 0   XYZ
    dof ry rz
    limits (-20.0 10.0)
           (0.0 20.0)
  end
  begin
     id 18 
     name lhumerus
     direction 1 -4.48964e-011 1.60116e-018   
     length 4.91377   
     axis -180 -30 -90   XYZ
    dof rx ry rz
    limits (-60.0 90.0)
           (-90.0 90.0)
           (-90.0 90.0)
  end
  begin
     id 19
     name lradius
     direction 1 -4.48989e-011 -8.93847e-027   
     length 3.00291   
     axis -180 -30 -90   XYZ
    dof rx
    limits (-10.0 170.0)
  end
  begin
     id 20
     name lwrist
     direction 1 -4.48932e-011 -7.31504e-027   
     length 1.50145   
     axis 5.74121e-015 90 90   XYZ
    dof ry
    limits (-180.0 0.0)
 end
  begin
     id 21 
     name lhand
     direction 1 -4.48971e-011 -1.46301e-026   
     length 0.450922   
     axis 9.33524e-015 90 90   XYZ
    dof rx rz
    limits (-90.0 90.0)
           (-45.0 45.0)
  end
  begin
     id 22 
     name lfingers
     direction 1 -4.49039e-011 -2.92602e-026   
     length 0.363545   
     axis 1.86705e-014 90 90   XYZ
    dof rx
    limits (0.0 90.0)
  end
  begin
     id 23
     name lthumb
     direction 0.707107 -6.34941e-011 0.707107   
     length 0.52198   
     axis -90 45 2.85299e-015   XYZ
    dof rx rz
    limits (-45.0 45.0)
           (-45.0 45.0)
  end
  begin
     id 24 
     name rclavicle
     direction -0.825079 0.56158 -0.0622297   
     length 3.39909  
     axis 0 0 0   XYZ 
    dof ry rz
    limits (-10.0 20.0)
           (-20.0 0.0)
  end
  begin
     id 25 
     name rhumerus
     direction -1 -4.48965e-011 1.61691e-027  
     length 4.86725   
     axis -180 30 90   XYZ
    dof rx ry rz
    limits (-90.0 60.0)
           (-90.0 90.0)
           (-90.0 90.0)
  end
  begin
     id 26 
     name rradius
     direction -1 -4.48964e-011 -2.25776e-027   
     length 3.17144   
     axis -180 30 90   XYZ
    dof rx
    limits (-10.0 170.0)
  end
  begin
     id 27 
     name rwrist
     direction -1 -4.48961e-011 -7.31504e-027   
     length 1.58572   
     axis 5.74121e-015 -90 -90   XYZ
    dof ry
    limits (-180.0 0.0)
  end
  begin
     id 28
     name rhand
     direction -1 -4.49013e-011 -1.46301e-026   
     length 0.419368   
     axis 9.33524e-015 -90 -90   XYZ
    dof rx rz
    limits (-90.0 90.0)
           (-45.0 45.0)
  end
  begin
     id 29
     name rfingers
     direction -1 -4.489e-011 -2.92602e-026   
     length 0.338105   
     axis 1.86705e-014 -90 -90   XYZ
    dof rx
    limits (0.0 90.0)
  end
  begin
     id 30
     name rthumb
     direction -0.707107 -6.35022e-011 0.707107   
     length 0.485453   
     axis -90 -45 -2.85299e-015   XYZ
    dof rx rz
    limits (-45.0 45.0)
           (-45.0 45.0)
  end
:hierarchy
  begin
    root lhipjoint rhipjoint lowerback
    lhipjoint lfemur
    lfemur ltibia
    ltibia lfoot
    lfoot ltoes
    rhipjoint rfemur
    rfemur rtibia
    rtibia rfoot
    rfoot rtoes
    lowerback upperback
    upperback thorax
    thorax lowerneck lclavicle rclavicle
    lowerneck upperneck
    upperneck head
    lclavicle lhumerus
    lhumerus lradius
    lradius lwrist
    lwrist lhand lthumb
    lhand lfingers
    rclavicle rhumerus
    rhumerus rradius
    rradius rwrist
    rwrist rhand rthumb
    rhand rfingers
  end

#!OML:ASF H:\Swim 2\Project 1\Capture day 1\Session 1\male.ASF
:FULLY-SPECIFIED
:DEGREES
394
root 0.353026 15.1144 8.36521 103.303 -25.6156 -4.75511
lowerback -21.5008 4.25218 12.1396
upperback -4.60225 3.75144 -10.6148
thorax 8.46753 2.28831 -17.5871
lowerneck -12.4961 -2.24773 -4.15022
upperneck -30.384 -0.89628 10.3817
head -7.27988 -0.930657 4.30217
rclavicle 2.06736e-014 -1.55052e-014
rhumerus 37.2447 -8.60393 -48.2505
rradius 77.721
rwrist -36.7806
rhand -20.1848 -10.2824
rfingers 7.12502
rthumb 6.16139 -40.1728
lclavicle 2.06736e-014 -1.55052e-014
lhumerus 220.805 -188.066 -157.813
lradius 78.5516
lwrist 43.3821
lhand -24.7131 -18.028
lfingers 7.12502
lthumb 1.78864 11.9443
rfemur -67.5845 1.18464 26.9191
rtibia 72.7385
rfoot 13.6325 -0.589406
rtoes -6.93311
lfemur -68.9059 12.1981 -31.7215
ltibia 74.6637
lfoot 20.2089 -1.64301
ltoes 14.945
395
root 0.300065 15.1344 8.39874 103.146 -25.6644 -4.88042
lowerback -21.2121 4.22528 12.0741
upperback -4.65981 3.75513 -10.6135
thorax 8.2579 2.26856 -17.5531
lowerneck -12.4482 -2.22116 -4.13986
upperneck -30.8208 -0.866567 10.2488
head -7.44788 -0.916697 4.2731
rclavicle 1.74931e-014 -1.71949e-014
rhumerus 35.792 -5.76163 -49.066
rradius 80.8702
rwrist -38.0848
rhand -21.115 -9.64417
rfingers 7.12502
rthumb 5.26328 -39.5588
lclavicle 1.74931e-014 -1.71949e-014
lhumerus 219.822 -185.511 -157.45
lradius 81.8801
lwrist 43.6505
lhand -25.5633 -17.5541
lfingers 7.12502
lthumb 0.967509 12.4235
rfemur -67.657 1.28439 26.97
rtibia 72.781
rfoot 13.6907 -0.315834
rtoes -7.09331
lfemur -69.0526 12.1007 -31.5763
ltibia 74.9057
lfoot 20.1199 -1.27888
ltoes 15.1497
396
root 0.247503 15.1525 8.43317 102.959 -25.7068 -4.97977
lowerback -20.9159 4.19317 12.0074
upperback -4.72314 3.75202 -10.6146
thorax 8.03555 2.24409 -17.524
lowerneck -12.3691 -2.19694 -4.14752
upperneck -31.2269 -0.832582 10.1556
head -7.61004 -0.901018 4.25992
rclavicle 1.03368e-014 1.49089e-014
rhumerus 34.2926 -2.73081 -49.8345
rradius 83.8267
rwrist -38.9635
rhand -21.949 -8.75178
rfingers 7.12502
rthumb 4.45803 -38.6849
lclavicle 1.03368e-014 1.49089e-014
lhumerus 218.946 -182.799 -157.094
lradius 84.9201
lwrist 44.1228
lhand -26.3481 -17.1035
lfingers 7.12502
lthumb 0.209562 12.8761
rfemur -67.6336 1.37464 27.0448
rtibia 72.6583
rfoot 13.7695 -0.117566
rtoes -7.16286
lfemur -69.1027 11.9461 -31.3619
ltibia 74.9656
lfoot 20.1405 -0.971537
ltoes 15.4412
397
root 0.195284 15.168 8.46811 102.756 -25.7375 -5.05158
lowerback -20.6353 4.15992 11.9481
upperback -4.79768 3.74341 -10.6194
thorax 7.80735 2.21574 -17.5055
lowerneck -12.2609 -2.17526 -4.16538
upperneck -31.592 -0.797199 10.0942
head -7.76218 -0.885194 4.25819
rclavicle -1.90833e-014 -3.37934e-014
rhumerus 32.7523 0.45039 -50.6139
rradius 86.5331
rwrist -39.3332
rhand -22.5676 -7.58368
rfingers 7.12502
rthumb 3.8607 -37.5284
lclavicle -1.90833e-014 -3.37934e-014
lhumerus 218.153 -179.932 -156.769
lradius 87.7057
lwrist 44.8641
lhand -27.0173 -16.7225
lfingers 7.12502
lthumb -0.436752 13.2568
rfemur -67.5285 1.45749 27.1484
rtibia 72.375
rfoot 13.8468 -0.0367923
rtoes -7.11449
lfemur -69.0736 11.7297 -31.0772
ltibia 74.8358
lfoot 20.2638 -0.770864
ltoes 15.7764
398
root 0.143728 15.1799 8.50261 102.548 -25.7511 -5.0922
lowerback -20.3906 4.12841 11.8981
upperback -4.88611 3.73091 -10.628
thorax 7.58144 2.18464 -17.4971
lowerneck -12.1318 -2.15403 -4.16933
upperneck -31.9039 -0.764943 10.0404
head -7.89899 -0.872118 4.25463
rclavicle 3.4191e-014 5.72997e-014
rhumerus 31.1771 3.74802 -51.445
rradius 88.9502
rwrist -39.1203
rhand -22.8751 -5.90444
rfingers 7.12502
rthumb 3.5637 -35.8544
lclavicle 3.4191e-014 5.72997e-014
lhumerus 217.423 -176.907 -156.495
lradius 90.2661
lwrist 45.8939
lhand -27.573 -16.4756
lfingers 7.12502
lthumb -0.973527 13.5019
rfemur -67.349 1.53829 27.2777
rtibia 71.9367
rfoot 13.892 -0.115182
rtoes -6.83242
lfemur -68.9777 11.4452 -30.7215
ltibia 74.5156
lfoot 20.4681 -0.699804
ltoes 16.1225
399
root 0.0925832 15.1879 8.53735 102.349 -25.7548 -5.11006
lowerback -20.1982 4.10093 11.8546
upperback -4.98845 3.71733 -10.6479
thorax 7.36816 2.15304 -17.5049
lowerneck -11.9902 -2.13485 -4.14785
upperneck -32.1646 -0.737381 9.99866
head -8.01943 -0.864427 4.24878
rclavicle 1.03368e-014 4.42296e-014
rhumerus 29.5793 7.11787 -52.3735
rradius 91.0448
rwrist -38.3339
rhand -23.3454 -3.27847
rfingers 7.12502
rthumb 3.10956 -33.2355
lclavicle 1.03368e-014 4.42296e-014
lhumerus 216.74 -173.708 -156.317
lradius 92.6055
lwrist 47.088
lhand -28.1731 -16.4721
lfingers 7.12502
lthumb -1.5531 13.5019
rfemur -67.1114 1.61658 27.4279
rtibia 71.3455
rfoot 13.8987 -0.335765
rtoes -6.4213
lfemur -68.8228 11.0934 -30.3092
ltibia 73.9999
lfoot 20.734 -0.768135
ltoes 16.403
400
root 0.0420087 15.1916 8.57143 102.17 -25.7465 -5.1132
lowerback -20.073 4.08314 11.8105
upperback -5.10597 3.71054 -10.6761
thorax 7.17591 2.12519 -17.5174
lowerneck -11.8302 -2.12586 -4.09207
upperneck -32.3836 -0.729057 9.96018
head -8.12679 -0.87031 4.23675
rclavicle 1.39149e-014 2.98177e-016
rhumerus 27.9456 10.5295 -53.4037
rradius 92.8224
rwrist -37.0877
rhand -24.005 0.0802002
rfingers 7.12502
rthumb 2.47254 -29.8852
lclavicle 1.39149e-014 2.98177e-016
lhumerus 216.109 -170.35 -156.251
lradius 94.7115
lwrist 48.4282
lhand -28.7994 -16.8225
lfingers 7.12502
lthumb -2.15793 13.1464
rfemur -66.8228 1.70465 27.5915
rtibia 70.6015
rfoot 13.8617 -0.681258
rtoes -5.80499
lfemur -68.6216 10.6847 -29.8495
ltibia 73.2956
lfoot 21.0409 -0.950984
ltoes 16.6335
401
root -0.00807645 15.191 8.60628 102.028 -25.7486 -5.12116
lowerback -20.0234 4.07172 11.753
upperback -5.22141 3.70838 -10.7113
thorax 7.02602 2.10268 -17.5258
lowerneck -11.6912 -2.13708 -4.04267
upperneck -32.5798 -0.742845 9.95859
head -8.22026 -0.888984 4.23824
rclavicle 1.94809e-014 -3.08116e-014
rhumerus 26.329 13.9536 -54.5042
rradius 94.2908
rwrist -35.5924
rhand -24.999 3.93604
rfingers 7.12502
rthumb 1.51252 -26.0383
lclavicle 1.94809e-014 -3.08116e-014
lhumerus 215.526 -166.94 -156.25
lradius 96.5562
lwrist 49.9049
lhand -29.2479 -17.5463
lfingers 7.12502
lthumb -2.59108 12.4177
rfemur -66.5026 1.80307 27.7476
rtibia 69.7031
rfoot 13.8106 -1.06699
rtoes -5.21235
lfemur -68.3756 10.2327 -29.3783
ltibia 72.4037
lfoot 21.3668 -1.18972
ltoes 16.768
402
root -0.0574338 15.1864 8.64179 101.925 -25.7673 -5.14391
lowerback -20.0471 4.07594 11.6701
upperback -5.32753 3.72778 -10.7631
thorax 6.93213 2.09608 -17.5293
lowerneck -11.6014 -2.17198 -3.95608
upperneck -32.7586 -0.792051 9.96617
head -8.29742 -0.929692 4.23601
rclavicle -1.27222e-014 1.10723e-013
rhumerus 24.7063 17.3296 -55.6614
rradius 95.4711
rwrist -33.9932
rhand -26.2982 7.73598
rfingers 7.12502
rthumb 0.25772 -22.2436
lclavicle -1.27222e-014 1.10723e-013
lhumerus 215.029 -163.523 -156.326
lradius 98.1068
lwrist 51.4013
lhand -29.4738 -18.5753
lfingers 7.12502
lthumb -2.8093 11.3859
rfemur -66.1518 1.91613 27.8855
rtibia 68.6454
rfoot 13.7659 -1.43933
rtoes -4.67059
lfemur -68.0872 9.7531 -28.9139
ltibia 71.3365
lfoot 21.6981 -1.44489
ltoes 16.8271
403
root -0.105787 15.1778 8.67815 101.866 -25.8101 -5.19098
lowerback -20.1442 4.09883 11.55
upperback -5.42589 3.77566 -10.832
thorax 6.89435 2.10867 -17.5187
lowerneck -11.5585 -2.2254 -3.81671
upperneck -32.929 -0.876077 9.9561
head -8.36276 -0.991974 4.21818
rclavicle 1.35174e-014 5.41688e-014
rhumerus 23.06 20.6225 -56.8577
rradius 96.3684
rwrist -32.4348
rhand -27.7092 11.0423
rfingers 7.12502
rthumb -1.10504 -18.9346
lclavicle 1.35174e-014 5.41688e-014
lhumerus 214.614 -160.146 -156.468
lradius 99.3509
lwrist 52.841
lhand -29.4296 -19.7204
lfingers 7.12502
lthumb -2.76659 10.2414
rfemur -65.7688 2.05134 27.9857
rtibia 67.4226
rfoot 13.7411 -1.76468
rtoes -4.12701
lfemur -67.7636 9.26229 -28.4755
ltibia 70.1084
lfoot 22.0146 -1.65051
ltoes 16.864
404
root -0.152865 15.165 8.71545 101.847 -25.8859 -5.26547
lowerback -20.3052 4.14006 11.3827
upperback -5.51954 3.85494 -10.9204
thorax 6.90504 2.14101 -17.4901
lowerneck -11.5347 -2.28884 -3.61769
upperneck -33.1168 -0.985473 9.91294
head -8.43166 -1.07164 4.17935
rclavicle -2.22639e-014 3.69739e-014
rhumerus 21.3358 23.8046 -58.1129
rradius 96.9683
rwrist -30.9358
rhand -29.0331 13.8074
rfingers 7.12502
rthumb -2.38367 -16.1591
lclavicle -2.22639e-014 3.69739e-014
lhumerus 214.272 -156.824 -156.672
lradius 100.278
lwrist 54.087
lhand -29.2317 -20.7996
lfingers 7.12502
lthumb -2.5755 9.16464
rfemur -65.3445 2.20905 28.028
rtibia 66.03
rfoot 13.7533 -2.02392
rtoes -3.55041
lfemur -67.401 8.76992 -28.0793
ltibia 68.7343
lfoot 22.3066 -1.77117
ltoes 16.8781
405
root -0.198614 15.1485 8.7541 101.882 -25.9991 -5.37965
lowerback -20.5369 4.20581 11.1672
upperback -5.62519 3.97373 -11.0305
thorax 6.95234 2.19491 -17.4415
lowerneck -11.4908 -2.35428 -3.3728
upperneck -33.3276 -1.10756 9.83631
head -8.51352 -1.16134 4.12229
rclavicle -1.11319e-014 4.48259e-014
rhumerus 19.4805 26.8297 -59.451
rradius 97.2536
rwrist -29.5037
rhand -30.2142 16.0557
rfingers 7.12502
rthumb -3.52434 -13.8949
lclavicle -1.11319e-014 4.48259e-014
lhumerus 213.984 -153.535 -156.952
lradius 100.882
lwrist 55.0114
lhand -29.1203 -21.723
lfingers 7.12502
lthumb -2.46792 8.24248
rfemur -64.8931 2.39371 28.0039
rtibia 64.4635
rfoot 13.8234 -2.18047
rtoes -3.02083
lfemur -67.0172 8.28521 -27.7349
ltibia 67.2298
lfoot 22.5741 -1.7531
ltoes 16.9544
